<svg version="1.1" viewBox="0.0 0.0 1152.0 192.0" fill="none" stroke="none" stroke-linecap="square" stroke-miterlimit="10" xmlns:xlink="http://www.w3.org/1999/xlink" xmlns="http://www.w3.org/2000/svg"><clipPath id="g333c88cd370_0_0.0"><path d="m0 0l1152.0 0l0 192.0l-1152.0 0l0 -192.0z" clip-rule="nonzero"/></clipPath><g clip-path="url(#g333c88cd370_0_0.0)"><path fill="#edf2fa" d="m0 0l1152.0 0l0 192.0l-1152.0 0z" fill-rule="evenodd"/><path fill="#ffffff" d="m-21.34385 -3.28084l1165.5748 0c0.0025634766 0 0.005004883 0.0010232925 0.0068359375 0.002845049c0.0018310547 0.001821518 0.0029296875 0.0042920113 0.0029296875 0.006868124l-0.009765625 196.99817c0 0.005355835 -0.0043945312 0.00970459 -0.009765625 0.00970459l-1165.5651 -0.00970459l0 0c-0.0053653717 0 -0.009714127 -0.004348755 -0.009714127 -0.009719849l0.009714127 -196.99815l0 0c0 -0.005364418 0.004348755 -0.009713173 0.009712219 -0.009713173z" fill-rule="evenodd"/><path fill="#000000" fill-opacity="0.0" d="m-14.370079 23.36483l612.9449 0l0 143.71652l-612.9449 0z" fill-rule="evenodd"/><path fill="#073763" d="m20.926796 156.84294q-8.390625 0 -13.671875 -4.453125q-5.265625 -4.4375 -5.265625 -11.703125q0 -4.5 2.125 -8.296875q2.140625 -3.796875 5.8281245 -5.9843674q3.703125 -2.203125 8.109375 -2.203125q4.625 0 7.671875 2.453125q3.046875 2.4531174 3.046875 6.5624924q0 3.140625 -2.859375 6.75q-2.0 -2.640625 -3.296875 -3.234375q-1.296875 -0.578125 -2.75 -0.578125q-2.5 0 -4.0625 1.625q-1.546875 1.640625 -1.546875 4.390625q0 2.765625 1.5 4.390625q1.515625 1.640625 3.78125 1.640625q2.9375 0 5.234375 -2.859375q2.296875 -2.84375 3.59375 -8.96875l6.53125 -22.859367l0.421875 0.46875q-2.171875 4.515625 -6.640625 6.84375q-4.46875 2.3125 -9.78125 2.3125q-6.71875 0 -11.8125 -3.59375q-5.09375 -3.59375 -7.765625 -10.09375q-2.65625 -6.515625 -2.65625 -14.953125q0 -12.140625 5.3125 -22.171875q5.328125 -10.03125 14.671875 -15.8125q9.359375 -5.796875 20.59375 -5.796875q9.609375 0 15.4375 4.359375q5.84375 4.359375 5.84375 12.015625q0 5.15625 -2.671875 8.46875q-2.671875 3.3125 -7.09375 3.3125q-2.390625 0 -4.515625 -1.015625q-2.125 -1.03125 -4.5625 -4.359375q2.984375 -1.984375 4.140625 -4.4375q1.15625 -2.453125 1.15625 -4.953125q0 -2.484375 -1.375 -3.765625q-1.359375 -1.296875 -4.109375 -1.296875q-5.53125 0 -10.921875 5.140625q-5.390625 5.140625 -8.78125 13.671875q-3.390625 8.53125 -3.390625 17.921875q0 7.53125 2.203125 11.15625q2.203125 3.609375 6.0625 3.609375q4.90625 0 8.984375 -5.59375q4.09375 -5.609375 6.984375 -18.203125l15.9375 0.140625l-8.203125 37.8125q-3.515625 16.296867 -10.125 24.218742q-6.609375 7.921875 -17.3125 7.921875zm55.91298 -21.65625q-8.53125 0 -13.640625 -4.5q-5.09375 -4.4999924 -5.09375 -13.999992q0 -7.625 2.984375 -16.734375q2.984375 -9.109375 9.875 -15.9375q6.890625 -6.84375 17.703125 -6.84375q14.140625 0 15.078125 14.0q-0.078125 0.015625 1.5 -1.796875q1.59375 -1.828125 3.609375 -5.171875l7.015625 0q-4.109375 8.265625 -6.5 11.71875q-2.390625 3.453125 -5.5625 5.234375q-0.59375 9.421875 -4.21875 17.34375q-3.609375 7.90625 -9.546875 12.296867q-5.9375 4.390625 -13.203125 4.390625zm4.265625 -12.906242q2.9375 0 6.046875 -5.828125q3.125 -5.828125 4.1875 -13.609375q-2.40625 -0.890625 -2.40625 -5.890625q0 -5.21875 2.921875 -6.578125q-0.109375 -1.828125 -0.640625 -2.609375q-0.53125 -0.78125 -1.6875 -0.78125q-2.609375 0 -5.5 4.578125q-2.890625 4.5625 -4.796875 11.546875q-1.90625 6.96875 -1.90625 12.1875q0 4.625 0.78125 5.8125q0.796875 1.171875 3.0 1.171875zm95.051 39.156242q-5.25 0 -10.140625 -2.875q-4.875 -2.859375 -12.125 -8.578125q-5.28125 -4.234375 -8.984375 -6.78125q-3.6875 -2.546875 -7.875 -4.265625q-4.1875 -1.71875 -8.453125 -1.71875q-1.4843826 0 -4.5625076 0.390625l15.718758 -73.15624q-3.765625 1.53125 -7.375 7.03125q-3.609375 5.484375 -3.609375 13.515625q0 3.578125 0.734375 5.125q0.75 1.546875 0.75 3.796875q-8.015633 0 -11.375008 -2.84375q-3.34375 -2.859375 -3.34375 -9.15625q0 -7.453125 5.921875 -14.265625q5.921875 -6.828125 14.984383 -10.96875q9.078125 -4.15625 18.1875 -4.15625q1.546875 0 6.28125 0.34375l-16.484375 76.87499q1.578125 0.40625 4.828125 1.890625q3.25 1.484375 7.765625 3.96875q6.84375 3.671875 11.5625 5.5625q4.71875 1.90625 9.71875 1.90625q4.46875 0 10.921875 -2.625q-1.203125 10.9375 -4.5 15.953125q-3.28125 5.03125 -8.546875 5.03125zm-0.62413025 -26.03125q-8.546875 0 -13.421875 -4.578125q-4.875 -4.5781174 -4.875 -14.031242q0 -7.625 2.984375 -16.78125q2.984375 -9.171875 9.875 -16.0q6.890625 -6.84375 17.59375 -6.84375q13.390625 0 13.390625 11.890625q0 6.484375 -3.671875 11.875q-3.671875 5.390625 -9.65625 8.609375q-5.984375 3.21875 -11.296875 3.578125q-0.109375 1.6875 -0.109375 2.703125q0 4.5625 1.328125 5.9375q1.34375 1.375 4.6875 1.375q5.28125 0 9.078125 -2.46875q3.8125 -2.484375 9.0625 -8.3125l7.28125 0q-13.8125 23.046867 -32.25 23.046867zm2.234375 -30.734367q1.359375 -0.0625 4.578125 -2.375q3.234375 -2.3125 5.21875 -5.90625q2.0 -3.59375 2.0 -7.546875q0 -2.71875 -1.015625 -2.71875q-2.859375 0 -6.25 6.171875q-3.375 6.171875 -4.53125 12.375zm45.674774 56.765617q-5.6875 0 -9.640625 -3.09375q-3.953125 -3.09375 -3.953125 -8.921875q0 -6.90625 5.34375 -10.921875q5.359375 -4.0 12.28125 -6.25l-0.109375 0.9375q-1.921875 2.21875 -10.0 2.21875q-6.78125 0 -11.3125 -4.640625q-4.53125 -4.6562424 -4.53125 -14.187492q0 -8.1875 3.265625 -17.1875q3.265625 -9.015625 9.875 -15.40625q6.625 -6.390625 15.9375 -6.390625q4.875 0 7.578125 1.890625q2.703125 1.890625 2.703125 5.203125l-1.65625 0.640625l-0.15625 -7.203125l18.73436 0l-10.374985 48.65625q1.953125 -0.65625 4.78125 -3.765625q2.828125 -3.125 5.2343597 -10.65625l7.90625 0q-3.65625 12.078125 -8.890625 16.796867q-5.2187347 4.703125 -10.812485 6.15625l-1.375 6.671875q-2.265625 10.953125 -7.96875 15.203125q-5.703125 4.25 -12.859375 4.25zm0.859375 -39.687492q1.828125 0 3.953125 -1.859375q2.125 -1.875 2.96875 -5.1875l5.390625 -25.0625q0 -0.53125 -0.640625 -1.328125q-0.640625 -0.796875 -2.078125 -0.796875q-3.390625 0 -6.484375 4.484375q-3.09375 4.484375 -4.9375 11.234375q-1.84375 6.734375 -1.84375 11.84375q0 4.640625 1.046875 5.65625q1.046875 1.015625 2.625 1.015625zm-3.3125 28.046867q0.953125 0 2.3125 -1.96875q1.375 -1.953125 2.25 -6.203125l0.046875 -0.171875q-6.578125 2.40625 -6.578125 6.484375q0 0.75 0.5 1.296875q0.5 0.5625 1.46875 0.5625zm53.777847 -14.390625q-6.78125 0 -11.3125 -4.640625q-4.53125 -4.6562424 -4.53125 -14.187492q0 -8.1875 3.265625 -17.1875q3.265625 -9.015625 9.875 -15.40625q6.625 -6.390625 15.9375 -6.390625q4.875 0 7.578125 1.890625q2.703125 1.890625 2.703125 5.203125l-1.65625 0.75l-0.15625 -7.3125l18.734375 0l-8.109375 38.3125q-0.375 1.421875 -0.375 3.015625q0 2.9375 2.71875 2.9375q2.1875 0 4.015625 -2.328125q1.84375 -2.328125 3.359375 -7.703125l8.046875 0q-4.859375 14.21875 -11.109375 18.640617q-6.234375 4.40625 -12.640625 4.40625q-5.125 0 -8.3125 -2.9375q-3.1875 -2.9375 -3.3125 -4.015625q-0.734375 1.046875 -4.84375 4.0q-4.109375 2.953125 -9.875 2.953125zm6.9375 -13.656242q1.984375 0 4.171875 -2.09375q2.203125 -2.109375 3.046875 -5.984375l5.09375 -23.9375q0 -0.625 -0.640625 -1.421875q-0.640625 -0.796875 -2.078125 -0.796875q-3.390625 0 -6.484375 4.484375q-3.09375 4.484375 -4.9375 11.234375q-1.84375 6.734375 -1.84375 11.84375q0 4.640625 1.046875 5.65625q1.046875 1.015625 2.625 1.015625zm50.038727 13.656242q-5.828125 0 -9.453125 -3.734375q-3.609375 -3.7499924 -3.609375 -10.937492q0 -2.8125 0.875 -7.265625l11.671875 -54.578125l19.265625 -2.609375l-12.765625 59.921875q-0.375 1.453125 -0.375 2.71875q0 2.609375 2.71875 2.609375q1.5625 0 5.265625 -1.578125q-0.6875 8.734367 -4.53125 12.093742q-3.84375 3.359375 -9.0625 3.359375z" fill-rule="nonzero"/><path fill="#000000" fill-opacity="0.0" d="m401.75067 103.73753l742.4882 0l0 63.338577l-742.4882 0z" fill-rule="evenodd"/><path fill="#073763" d="m419.21942 121.63691l-4.640625 14.140617l-3.75 0l6.34375 -17.062492l2.375 0l-0.328125 2.921875zm3.84375 14.140617l-4.640625 -14.140617l-0.375 -2.921875l2.390625 0l6.375 17.062492l-3.75 0zm-0.203125 -6.359375l0 2.765625l-9.015625 0l0 -2.765625l9.015625 0zm15.2265625 0.703125l3.5 0q-0.109375 1.71875 -0.953125 3.0625q-0.828125 1.328125 -2.328125 2.078125q-1.484375 0.75 -3.59375 0.75q-1.640625 0 -2.9375 -0.5625q-1.296875 -0.578125 -2.21875 -1.640625q-0.921875 -1.0625 -1.40625 -2.578125q-0.46875 -1.515625 -0.46875 -3.3906174l0 -1.1875q0 -1.875 0.484375 -3.390625q0.5 -1.515625 1.4375 -2.578125q0.9375 -1.0625 2.234375 -1.640625q1.296875 -0.578125 2.90625 -0.578125q2.125 0 3.59375 0.78125q1.484375 0.765625 2.296875 2.125q0.8125 1.359375 0.96875 3.09375l-3.5 0q-0.0625 -1.03125 -0.421875 -1.75q-0.34375 -0.71875 -1.0625 -1.078125q-0.703125 -0.375 -1.875 -0.375q-0.875 0 -1.53125 0.328125q-0.65625 0.328125 -1.109375 1.0q-0.4375 0.65625 -0.65625 1.671875q-0.21875 1.015625 -0.21875 2.375l0 1.203125q0 1.3281174 0.1875 2.3281174q0.203125 1.0 0.625 1.6875q0.421875 0.6875 1.078125 1.03125q0.65625 0.34375 1.59375 0.34375q1.109375 0 1.8125 -0.34375q0.71875 -0.359375 1.09375 -1.046875q0.390625 -0.6875 0.46875 -1.71875zm15.703125 0l3.5 0q-0.109375 1.71875 -0.953125 3.0625q-0.828125 1.328125 -2.328125 2.078125q-1.484375 0.75 -3.59375 0.75q-1.640625 0 -2.9375 -0.5625q-1.296875 -0.578125 -2.21875 -1.640625q-0.921875 -1.0625 -1.40625 -2.578125q-0.46875 -1.515625 -0.46875 -3.3906174l0 -1.1875q0 -1.875 0.484375 -3.390625q0.5 -1.515625 1.4375 -2.578125q0.9375 -1.0625 2.234375 -1.640625q1.296875 -0.578125 2.90625 -0.578125q2.125 0 3.59375 0.78125q1.484375 0.765625 2.296875 2.125q0.8125 1.359375 0.96875 3.09375l-3.5 0q-0.0625 -1.03125 -0.421875 -1.75q-0.34375 -0.71875 -1.0625 -1.078125q-0.703125 -0.375 -1.875 -0.375q-0.875 0 -1.53125 0.328125q-0.65625 0.328125 -1.109375 1.0q-0.4375 0.65625 -0.65625 1.671875q-0.21875 1.015625 -0.21875 2.375l0 1.203125q0 1.3281174 0.1875 2.3281174q0.203125 1.0 0.625 1.6875q0.421875 0.6875 1.078125 1.03125q0.65625 0.34375 1.59375 0.34375q1.109375 0 1.8125 -0.34375q0.71875 -0.359375 1.09375 -1.046875q0.390625 -0.6875 0.46875 -1.71875zm17.25 2.90625l0 2.75l-9.078125 0l0 -2.75l9.078125 0zm-7.921875 -14.312492l0 17.062492l-3.515625 0l0 -17.062492l3.515625 0zm6.75 6.953125l0 2.6718674l-7.90625 0l0 -2.6718674l7.90625 0zm1.171875 -6.953125l0 2.75l-9.078125 0l0 -2.75l9.078125 0zm10.9375 12.593742q0 -0.453125 -0.140625 -0.8125q-0.125 -0.375 -0.5 -0.6875q-0.359375 -0.3125 -1.015625 -0.609375q-0.65625 -0.3125 -1.6875 -0.640625q-1.171875 -0.375 -2.203125 -0.8437424q-1.03125 -0.46875 -1.828125 -1.09375q-0.796875 -0.625 -1.25 -1.453125q-0.4375 -0.84375 -0.4375 -1.9375q0 -1.078125 0.46875 -1.9375q0.46875 -0.875 1.3125 -1.5q0.84375 -0.640625 1.984375 -0.96875q1.15625 -0.34375 2.546875 -0.34375q1.890625 0 3.296875 0.6875q1.40625 0.671875 2.171875 1.859375q0.78125 1.171875 0.78125 2.703125l-3.484375 0q0 -0.75 -0.3125 -1.3125q-0.3125 -0.578125 -0.9375 -0.90625q-0.625 -0.34375 -1.578125 -0.34375q-0.90625 0 -1.515625 0.28125q-0.609375 0.28125 -0.921875 0.75q-0.296875 0.46875 -0.296875 1.03125q0 0.4375 0.203125 0.796875q0.21875 0.34375 0.65625 0.65625q0.4375 0.296875 1.0625 0.578125q0.640625 0.265625 1.46875 0.515625q1.390625 0.421875 2.453125 0.953125q1.0625 0.53125 1.78125 1.1875q0.71875 0.6562424 1.078125 1.4843674q0.359375 0.828125 0.359375 1.890625q0 1.109375 -0.4375 1.984375q-0.421875 0.875 -1.25 1.484375q-0.8125 0.609375 -1.953125 0.9375q-1.140625 0.3125 -2.546875 0.3125q-1.265625 0 -2.5 -0.328125q-1.21875 -0.34375 -2.234375 -1.015625q-1.0 -0.6875 -1.59375 -1.734375q-0.59375 -1.0625 -0.59375 -2.5l3.53125 0q0 0.796875 0.234375 1.34375q0.25 0.546875 0.703125 0.890625q0.453125 0.34375 1.078125 0.5q0.625 0.15625 1.375 0.15625q0.921875 0 1.5 -0.265625q0.59375 -0.265625 0.875 -0.71875q0.296875 -0.453125 0.296875 -1.03125zm14.777344 0q0 -0.453125 -0.140625 -0.8125q-0.125 -0.375 -0.5 -0.6875q-0.359375 -0.3125 -1.015625 -0.609375q-0.65625 -0.3125 -1.6875 -0.640625q-1.171875 -0.375 -2.203125 -0.8437424q-1.03125 -0.46875 -1.828125 -1.09375q-0.796875 -0.625 -1.25 -1.453125q-0.4375 -0.84375 -0.4375 -1.9375q0 -1.078125 0.46875 -1.9375q0.46875 -0.875 1.3125 -1.5q0.84375 -0.640625 1.984375 -0.96875q1.15625 -0.34375 2.546875 -0.34375q1.890625 0 3.296875 0.6875q1.40625 0.671875 2.171875 1.859375q0.78125 1.171875 0.78125 2.703125l-3.484375 0q0 -0.75 -0.3125 -1.3125q-0.3125 -0.578125 -0.9375 -0.90625q-0.625 -0.34375 -1.578125 -0.34375q-0.90625 0 -1.515625 0.28125q-0.609375 0.28125 -0.921875 0.75q-0.296875 0.46875 -0.296875 1.03125q0 0.4375 0.203125 0.796875q0.21875 0.34375 0.65625 0.65625q0.4375 0.296875 1.0625 0.578125q0.640625 0.265625 1.46875 0.515625q1.390625 0.421875 2.453125 0.953125q1.0625 0.53125 1.78125 1.1875q0.71875 0.6562424 1.078125 1.4843674q0.359375 0.828125 0.359375 1.890625q0 1.109375 -0.4375 1.984375q-0.421875 0.875 -1.25 1.484375q-0.8125 0.609375 -1.953125 0.9375q-1.140625 0.3125 -2.546875 0.3125q-1.265625 0 -2.5 -0.328125q-1.21875 -0.34375 -2.234375 -1.015625q-1.0 -0.6875 -1.59375 -1.734375q-0.59375 -1.0625 -0.59375 -2.5l3.53125 0q0 0.796875 0.234375 1.34375q0.25 0.546875 0.703125 0.890625q0.453125 0.34375 1.078125 0.5q0.625 0.15625 1.375 0.15625q0.921875 0 1.5 -0.265625q0.59375 -0.265625 0.875 -0.71875q0.296875 -0.453125 0.296875 -1.03125zm23.304688 1.71875l0 2.75l-9.078125 0l0 -2.75l9.078125 0zm-7.921875 -14.312492l0 17.062492l-3.515625 0l0 -17.062492l3.515625 0zm6.75 6.953125l0 2.6718674l-7.90625 0l0 -2.6718674l7.90625 0zm1.171875 -6.953125l0 2.75l-9.078125 0l0 -2.75l9.078125 0zm9.921875 0l0 17.062492l-3.5 0l0 -17.062492l3.5 0zm5.25 0l0 2.75l-13.921875 0l0 -2.75l13.921875 0zm13.371094 6.953125l0 2.7343674l-8.90625 0l0 -2.7343674l8.90625 0zm-7.859375 -6.953125l0 17.062492l-3.515625 0l0 -17.062492l3.515625 0zm10.359375 0l0 17.062492l-3.5 0l0 -17.062492l3.5 0zm6.8046875 0l0 17.062492l-3.5 0l0 -17.062492l3.5 0zm17.300781 8.125l0 0.8125q0 1.9531174 -0.53125 3.4999924q-0.53125 1.546875 -1.5 2.625q-0.953125 1.078125 -2.28125 1.65625q-1.328125 0.578125 -2.953125 0.578125q-1.59375 0 -2.9375 -0.578125q-1.328125 -0.578125 -2.296875 -1.65625q-0.96875 -1.078125 -1.5 -2.625q-0.53125 -1.546875 -0.53125 -3.4999924l0 -0.8125q0 -1.953125 0.515625 -3.484375q0.53125 -1.546875 1.5 -2.640625q0.96875 -1.09375 2.296875 -1.65625q1.328125 -0.578125 2.9375 -0.578125q1.609375 0 2.9375 0.578125q1.34375 0.5625 2.296875 1.65625q0.96875 1.09375 1.5 2.640625q0.546875 1.53125 0.546875 3.484375zm-3.5625 0.8125l0 -0.828125q0 -1.359375 -0.25 -2.390625q-0.234375 -1.03125 -0.71875 -1.734375q-0.484375 -0.703125 -1.171875 -1.0625q-0.6875 -0.359375 -1.578125 -0.359375q-0.890625 0 -1.578125 0.359375q-0.6875 0.359375 -1.171875 1.0625q-0.46875 0.703125 -0.71875 1.734375q-0.234375 1.03125 -0.234375 2.390625l0 0.828125q0 1.3437424 0.234375 2.3906174q0.25 1.03125 0.734375 1.75q0.484375 0.703125 1.171875 1.0625q0.6875 0.359375 1.578125 0.359375q0.890625 0 1.578125 -0.359375q0.703125 -0.359375 1.171875 -1.0625q0.46875 -0.71875 0.703125 -1.75q0.25 -1.046875 0.25 -2.3906174zm12.734375 2.0468674l-4.34375 0l0 -2.7499924l4.34375 0q1.0 0 1.625 -0.328125q0.640625 -0.34375 0.9375 -0.9375q0.296875 -0.59375 0.296875 -1.34375q0 -0.765625 -0.296875 -1.421875q-0.296875 -0.65625 -0.9375 -1.046875q-0.625 -0.40625 -1.625 -0.40625l-3.125 0l0 14.312492l-3.515625 0l0 -17.062492l6.640625 0q2.0 0 3.4375 0.71875q1.4375 0.71875 2.1875 1.984375q0.765625 1.265625 0.765625 2.890625q0 1.65625 -0.765625 2.875q-0.75 1.2031174 -2.1875 1.8593674q-1.4375 0.65625 -3.4375 0.65625zm12.5625 -10.984367l0 17.062492l-3.5 0l0 -17.062492l3.5 0zm10.433594 2.921875l-4.640625 14.140617l-3.75 0l6.34375 -17.062492l2.375 0l-0.328125 2.921875zm3.84375 14.140617l-4.640625 -14.140617l-0.375 -2.921875l2.390625 0l6.375 17.062492l-3.75 0zm-0.203125 -6.359375l0 2.765625l-9.015625 0l0 -2.765625l9.015625 0zm19.421875 -10.703117l0 17.062492l-3.515625 0l-6.84375 -11.437492l0 11.437492l-3.515625 0l0 -17.062492l3.515625 0l6.859375 11.453117l0 -11.453117l3.5 0zm19.992188 14.312492l0 2.75l-8.59375 0l0 -2.75l8.59375 0zm-7.453125 -14.312492l0 17.062492l-3.515625 0l0 -17.062492l3.515625 0zm16.628906 2.921875l-4.640625 14.140617l-3.75 0l6.34375 -17.062492l2.375 0l-0.328125 2.921875zm3.84375 14.140617l-4.640625 -14.140617l-0.375 -2.921875l2.390625 0l6.375 17.062492l-3.75 0zm-0.203125 -6.359375l0 2.765625l-9.015625 0l0 -2.765625l9.015625 0zm9.082031 3.65625l3.390625 -14.359367l1.90625 0l0.4375 2.390625l-3.625 14.671867l-2.046875 0l-0.0625 -2.703125zm-1.75 -14.359367l2.8125 14.359367l-0.234375 2.703125l-2.265625 0l-3.796875 -17.062492l3.484375 0zm10.46875 14.296867l2.78125 -14.296867l3.46875 0l-3.765625 17.062492l-2.28125 0l-0.203125 -2.765625zm-2.359375 -14.296867l3.421875 14.406242l-0.09375 2.65625l-2.03125 0l-3.65625 -14.687492l0.46875 -2.375l1.890625 0z" fill-rule="nonzero"/><path fill="#073763" d="m418.7038 158.36003l0 -11.171875l3.3125 0l0 11.171875q0 1.609375 -0.71875 2.765625q-0.703125 1.15625 -1.921875 1.78125q-1.21875 0.609375 -2.75 0.609375q-1.578125 0 -2.796875 -0.53125q-1.21875 -0.53125 -1.921875 -1.625q-0.6875 -1.109375 -0.6875 -2.796875l3.328125 0q0 0.890625 0.25 1.40625q0.25 0.515625 0.703125 0.734375q0.46875 0.21875 1.125 0.21875q0.625 0 1.09375 -0.296875q0.46875 -0.296875 0.71875 -0.859375q0.265625 -0.578125 0.265625 -1.40625zm15.03064 -11.171875l3.3125 0l0 10.640625q0 1.859375 -0.796875 3.140625q-0.78125 1.265625 -2.171875 1.90625q-1.390625 0.640625 -3.1875 0.640625q-1.8125 0 -3.21875 -0.640625q-1.390625 -0.640625 -2.1875 -1.90625q-0.78125 -1.28125 -0.78125 -3.140625l0 -10.640625l3.3125 0l0 10.640625q0 1.09375 0.34375 1.78125q0.34375 0.671875 0.984375 1.0q0.65625 0.3125 1.546875 0.3125q0.90625 0 1.53125 -0.3125q0.640625 -0.328125 0.96875 -1.0q0.34375 -0.6875 0.34375 -1.78125l0 -10.640625zm14.43454 11.890625q0 -0.421875 -0.140625 -0.765625q-0.125 -0.359375 -0.46875 -0.640625q-0.328125 -0.296875 -0.953125 -0.578125q-0.625 -0.296875 -1.609375 -0.609375q-1.09375 -0.359375 -2.078125 -0.796875q-0.96875 -0.4375 -1.71875 -1.03125q-0.75 -0.59375 -1.171875 -1.375q-0.421875 -0.796875 -0.421875 -1.828125q0 -1.015625 0.4375 -1.828125q0.4375 -0.828125 1.234375 -1.421875q0.796875 -0.59375 1.890625 -0.90625q1.09375 -0.328125 2.390625 -0.328125q1.78125 0 3.109375 0.640625q1.328125 0.640625 2.0625 1.765625q0.734375 1.109375 0.734375 2.546875l-3.296875 0q0 -0.703125 -0.296875 -1.234375q-0.28125 -0.546875 -0.875 -0.859375q-0.59375 -0.3125 -1.484375 -0.3125q-0.859375 0 -1.4375 0.265625q-0.578125 0.265625 -0.875 0.703125q-0.28125 0.4375 -0.28125 0.96875q0 0.421875 0.203125 0.75q0.203125 0.328125 0.609375 0.625q0.421875 0.28125 1.015625 0.53125q0.59375 0.25 1.375 0.5q1.328125 0.40625 2.328125 0.90625q1.0 0.484375 1.671875 1.109375q0.671875 0.625 1.015625 1.40625q0.34375 0.78125 0.34375 1.78125q0 1.046875 -0.40625 1.875q-0.40625 0.828125 -1.1875 1.40625q-0.765625 0.578125 -1.84375 0.875q-1.078125 0.296875 -2.40625 0.296875q-1.1875 0 -2.359375 -0.3125q-1.15625 -0.3125 -2.109375 -0.953125q-0.9375 -0.640625 -1.5 -1.640625q-0.5625 -1.0 -0.5625 -2.359375l3.328125 0q0 0.75 0.234375 1.28125q0.234375 0.515625 0.65625 0.84375q0.421875 0.3125 1.015625 0.46875q0.59375 0.140625 1.296875 0.140625q0.875 0 1.421875 -0.25q0.5625 -0.25 0.828125 -0.671875q0.28125 -0.4375 0.28125 -0.984375zm12.762451 -11.890625l0 16.109375l-3.3125 0l0 -16.109375l3.3125 0zm4.953125 0l0 2.609375l-13.140625 0l0 -2.609375l13.140625 0zm10.227936 0l0 16.109375l-3.3125 0l0 -16.109375l3.3125 0zm6.421875 6.890625l0 2.578125l-7.328125 0l0 -2.578125l7.328125 0zm0.78125 -6.890625l0 2.609375l-8.109375 0l0 -2.609375l8.109375 0zm1.9187622 0l6.0 0q1.859375 0 3.1875 0.5625q1.328125 0.546875 2.046875 1.640625q0.71875 1.078125 0.71875 2.65625q0 1.296875 -0.4375 2.21875q-0.4375 0.921875 -1.234375 1.546875q-0.78125 0.609375 -1.84375 0.96875l-1.046875 0.546875l-5.21875 0l-0.03125 -2.578125l3.890625 0q0.875 0 1.4375 -0.3125q0.578125 -0.3125 0.875 -0.859375q0.296875 -0.5625 0.296875 -1.28125q0 -0.78125 -0.296875 -1.34375q-0.28125 -0.5625 -0.875 -0.859375q-0.578125 -0.296875 -1.46875 -0.296875l-2.6875 0l0 13.5l-3.3125 0l0 -16.109375zm9.0 16.109375l-3.671875 -7.171875l3.515625 -0.03125l3.71875 7.046875l0 0.15625l-3.5625 0zm18.748535 -8.4375l0 0.765625q0 1.84375 -0.5 3.3125q-0.5 1.453125 -1.40625 2.484375q-0.90625 1.015625 -2.171875 1.5625q-1.25 0.53125 -2.765625 0.53125q-1.515625 0 -2.78125 -0.53125q-1.25 -0.546875 -2.171875 -1.5625q-0.921875 -1.03125 -1.421875 -2.484375q-0.5 -1.46875 -0.5 -3.3125l0 -0.765625q0 -1.84375 0.5 -3.296875q0.5 -1.453125 1.40625 -2.484375q0.90625 -1.03125 2.15625 -1.5625q1.265625 -0.546875 2.78125 -0.546875q1.53125 0 2.78125 0.546875q1.265625 0.53125 2.171875 1.5625q0.90625 1.03125 1.40625 2.484375q0.515625 1.453125 0.515625 3.296875zm-3.359375 0.765625l0 -0.78125q0 -1.28125 -0.234375 -2.25q-0.21875 -0.984375 -0.6875 -1.640625q-0.453125 -0.671875 -1.109375 -1.0q-0.640625 -0.34375 -1.484375 -0.34375q-0.84375 0 -1.484375 0.34375q-0.640625 0.328125 -1.09375 1.0q-0.453125 0.65625 -0.6875 1.640625q-0.234375 0.96875 -0.234375 2.25l0 0.78125q0 1.28125 0.234375 2.265625q0.234375 0.96875 0.6875 1.640625q0.453125 0.671875 1.109375 1.015625q0.65625 0.34375 1.5 0.34375q0.828125 0 1.484375 -0.34375q0.65625 -0.34375 1.09375 -1.015625q0.453125 -0.671875 0.671875 -1.640625q0.234375 -0.984375 0.234375 -2.265625zm7.2610474 -8.4375l2.8125 0l4.140625 11.828125l4.125 -11.828125l2.8125 0l-5.8125 16.109375l-2.265625 0l-5.8125 -16.109375zm-1.515625 0l2.796875 0l0.515625 11.53125l0 4.578125l-3.3125 0l0 -16.109375zm14.125 0l2.8125 0l0 16.109375l-3.3125 0l0 -4.578125l0.5 -11.53125zm13.559937 0l3.359375 7.34375l3.359375 -7.34375l3.625 0l-5.3125 10.25l0 5.859375l-3.359375 0l0 -5.859375l-5.3125 -10.25l3.640625 0zm24.722046 7.671875l0 0.765625q0 1.84375 -0.5 3.3125q-0.5 1.453125 -1.40625 2.484375q-0.90625 1.015625 -2.171875 1.5625q-1.25 0.53125 -2.765625 0.53125q-1.515625 0 -2.78125 -0.53125q-1.25 -0.546875 -2.171875 -1.5625q-0.921875 -1.03125 -1.421875 -2.484375q-0.5 -1.46875 -0.5 -3.3125l0 -0.765625q0 -1.84375 0.5 -3.296875q0.5 -1.453125 1.40625 -2.484375q0.90625 -1.03125 2.15625 -1.5625q1.265625 -0.546875 2.78125 -0.546875q1.53125 0 2.78125 0.546875q1.265625 0.53125 2.171875 1.5625q0.90625 1.03125 1.40625 2.484375q0.515625 1.453125 0.515625 3.296875zm-3.359375 0.765625l0 -0.78125q0 -1.28125 -0.234375 -2.25q-0.21875 -0.984375 -0.6875 -1.640625q-0.453125 -0.671875 -1.109375 -1.0q-0.640625 -0.34375 -1.484375 -0.34375q-0.84375 0 -1.484375 0.34375q-0.640625 0.328125 -1.09375 1.0q-0.453125 0.65625 -0.6875 1.640625q-0.234375 0.96875 -0.234375 2.25l0 0.78125q0 1.28125 0.234375 2.265625q0.234375 0.96875 0.6875 1.640625q0.453125 0.671875 1.109375 1.015625q0.65625 0.34375 1.5 0.34375q0.828125 0 1.484375 -0.34375q0.65625 -0.34375 1.09375 -1.015625q0.453125 -0.671875 0.671875 -1.640625q0.234375 -0.984375 0.234375 -2.265625zm14.636047 -8.4375l3.3125 0l0 10.640625q0 1.859375 -0.796875 3.140625q-0.78125 1.265625 -2.171875 1.90625q-1.390625 0.640625 -3.1875 0.640625q-1.8125 0 -3.21875 -0.640625q-1.390625 -0.640625 -2.1875 -1.90625q-0.78125 -1.28125 -0.78125 -3.140625l0 -10.640625l3.3125 0l0 10.640625q0 1.09375 0.34375 1.78125q0.34375 0.671875 0.984375 1.0q0.65625 0.3125 1.546875 0.3125q0.90625 0 1.53125 -0.3125q0.640625 -0.328125 0.96875 -1.0q0.34375 -0.6875 0.34375 -1.78125l0 -10.640625zm6.0438843 0l6.0 0q1.859375 0 3.1875 0.5625q1.328125 0.546875 2.046875 1.640625q0.71875 1.078125 0.71875 2.65625q0 1.296875 -0.4375 2.21875q-0.4375 0.921875 -1.234375 1.546875q-0.78125 0.609375 -1.84375 0.96875l-1.046875 0.546875l-5.21875 0l-0.03125 -2.578125l3.890625 0q0.875 0 1.4375 -0.3125q0.578125 -0.3125 0.875 -0.859375q0.296875 -0.5625 0.296875 -1.28125q0 -0.78125 -0.296875 -1.34375q-0.28125 -0.5625 -0.875 -0.859375q-0.578125 -0.296875 -1.46875 -0.296875l-2.6875 0l0 13.5l-3.3125 0l0 -16.109375zm9.0 16.109375l-3.671875 -7.171875l3.515625 -0.03125l3.71875 7.046875l0 0.15625l-3.5625 0zm14.457581 -16.109375l0 16.109375l-3.3125 0l0 -16.109375l3.3125 0zm6.421875 6.890625l0 2.578125l-7.328125 0l0 -2.578125l7.328125 0zm0.78125 -6.890625l0 2.609375l-8.109375 0l0 -2.609375l8.109375 0zm5.450012 0l0 16.109375l-3.3125 0l0 -16.109375l3.3125 0zm16.20459 0l0 16.109375l-3.3125 0l-6.484375 -10.796875l0 10.796875l-3.3125 0l0 -16.109375l3.3125 0l6.484375 10.8125l0 -10.8125l3.3125 0zm15.641785 7.6875l0 6.390625q-0.375 0.453125 -1.171875 0.984375q-0.78125 0.515625 -2.015625 0.890625q-1.234375 0.375 -3.0 0.375q-1.5625 0 -2.84375 -0.515625q-1.28125 -0.515625 -2.203125 -1.5q-0.921875 -1.0 -1.421875 -2.4375q-0.5 -1.453125 -0.5 -3.3125l0 -1.0q0 -1.859375 0.484375 -3.3125q0.484375 -1.453125 1.375 -2.4375q0.90625 -1.0 2.140625 -1.515625q1.234375 -0.53125 2.75 -0.53125q2.109375 0 3.453125 0.6875q1.34375 0.671875 2.0625 1.875q0.71875 1.203125 0.875 2.75l-3.21875 0q-0.109375 -0.8125 -0.453125 -1.421875q-0.34375 -0.609375 -0.984375 -0.953125q-0.640625 -0.34375 -1.640625 -0.34375q-0.828125 0 -1.484375 0.34375q-0.640625 0.328125 -1.09375 0.984375q-0.4375 0.65625 -0.671875 1.625q-0.234375 0.953125 -0.234375 2.21875l0 1.03125q0 1.265625 0.25 2.234375q0.25 0.96875 0.71875 1.625q0.484375 0.65625 1.1875 0.984375q0.71875 0.328125 1.65625 0.328125q0.78125 0 1.3125 -0.125q0.53125 -0.140625 0.84375 -0.328125q0.328125 -0.1875 0.515625 -0.375l0 -2.84375l-3.03125 0l0 -2.375l6.34375 0zm13.490295 5.828125l0 2.59375l-8.578125 0l0 -2.59375l8.578125 0zm-7.5 -13.515625l0 16.109375l-3.3125 0l0 -16.109375l3.3125 0zm6.375 6.5625l0 2.515625l-7.453125 0l0 -2.515625l7.453125 0zm1.109375 -6.5625l0 2.609375l-8.5625 0l0 -2.609375l8.5625 0zm1.9472656 0l6.0 0q1.859375 0 3.1875 0.5625q1.328125 0.546875 2.046875 1.640625q0.71875 1.078125 0.71875 2.65625q0 1.296875 -0.4375 2.21875q-0.4375 0.921875 -1.234375 1.546875q-0.78125 0.609375 -1.84375 0.96875l-1.046875 0.546875l-5.21875 0l-0.03125 -2.578125l3.890625 0q0.875 0 1.4375 -0.3125q0.578125 -0.3125 0.875 -0.859375q0.296875 -0.5625 0.296875 -1.28125q0 -0.78125 -0.296875 -1.34375q-0.28125 -0.5625 -0.875 -0.859375q-0.578125 -0.296875 -1.46875 -0.296875l-2.6875 0l0 13.5l-3.3125 0l0 -16.109375zm9.0 16.109375l-3.671875 -7.171875l3.515625 -0.03125l3.71875 7.046875l0 0.15625l-3.5625 0zm12.053223 -16.109375l0 16.109375l-3.3125 0l0 -16.109375l3.3125 0zm4.953125 0l0 2.609375l-13.140625 0l0 -2.609375l13.140625 0zm5.413452 0l0 16.109375l-3.3125 0l0 -16.109375l3.3125 0zm9.360901 10.375l-4.09375 0l0 -2.59375l4.09375 0q0.953125 0 1.546875 -0.3125q0.609375 -0.3125 0.875 -0.875q0.28125 -0.578125 0.28125 -1.28125q0 -0.71875 -0.28125 -1.328125q-0.265625 -0.625 -0.875 -1.0q-0.59375 -0.375 -1.546875 -0.375l-2.953125 0l0 13.5l-3.3125 0l0 -16.109375l6.265625 0q1.90625 0 3.25 0.6875q1.359375 0.671875 2.078125 1.875q0.71875 1.1875 0.71875 2.734375q0 1.546875 -0.71875 2.6875q-0.71875 1.140625 -2.078125 1.765625q-1.34375 0.625 -3.25 0.625zm16.727661 1.515625q0 -0.421875 -0.140625 -0.765625q-0.125 -0.359375 -0.46875 -0.640625q-0.328125 -0.296875 -0.953125 -0.578125q-0.625 -0.296875 -1.609375 -0.609375q-1.09375 -0.359375 -2.078125 -0.796875q-0.96875 -0.4375 -1.71875 -1.03125q-0.75 -0.59375 -1.171875 -1.375q-0.421875 -0.796875 -0.421875 -1.828125q0 -1.015625 0.4375 -1.828125q0.4375 -0.828125 1.234375 -1.421875q0.796875 -0.59375 1.890625 -0.90625q1.09375 -0.328125 2.390625 -0.328125q1.78125 0 3.109375 0.640625q1.328125 0.640625 2.0625 1.765625q0.734375 1.109375 0.734375 2.546875l-3.296875 0q0 -0.703125 -0.296875 -1.234375q-0.28125 -0.546875 -0.875 -0.859375q-0.59375 -0.3125 -1.484375 -0.3125q-0.859375 0 -1.4375 0.265625q-0.578125 0.265625 -0.875 0.703125q-0.28125 0.4375 -0.28125 0.96875q0 0.421875 0.203125 0.75q0.203125 0.328125 0.609375 0.625q0.421875 0.28125 1.015625 0.53125q0.59375 0.25 1.375 0.5q1.328125 0.40625 2.328125 0.90625q1.0 0.484375 1.671875 1.109375q0.671875 0.625 1.015625 1.40625q0.34375 0.78125 0.34375 1.78125q0 1.046875 -0.40625 1.875q-0.40625 0.828125 -1.1875 1.40625q-0.765625 0.578125 -1.84375 0.875q-1.078125 0.296875 -2.40625 0.296875q-1.1875 0 -2.359375 -0.3125q-1.15625 -0.3125 -2.109375 -0.953125q-0.9375 -0.640625 -1.5 -1.640625q-0.5625 -1.0 -0.5625 -2.359375l3.328125 0q0 0.75 0.234375 1.28125q0.234375 0.515625 0.65625 0.84375q0.421875 0.3125 1.015625 0.46875q0.59375 0.140625 1.296875 0.140625q0.875 0 1.421875 -0.25q0.5625 -0.25 0.828125 -0.671875q0.28125 -0.4375 0.28125 -0.984375z" fill-rule="nonzero"/><path fill="#000000" fill-opacity="0.0" d="m358.6488 139.2l823.3386 0.03149414" fill-rule="evenodd"/><path stroke="#073763" stroke-width="1.0" stroke-linejoin="round" stroke-linecap="butt" d="m358.6488 139.2l823.3386 0.03149414" fill-rule="evenodd"/><path fill="#000000" fill-opacity="0.0" d="m261.44 167.04l912.12604 1.7637787" fill-rule="evenodd"/><path stroke="#073763" stroke-width="1.0" stroke-linejoin="round" stroke-linecap="butt" d="m261.44 167.04l912.12604 1.7637787" fill-rule="evenodd"/></g></svg>