<svg version="1.1" viewBox="0.0 0.0 1152.0 192.0" fill="none" stroke="none" stroke-linecap="square" stroke-miterlimit="10" xmlns:xlink="http://www.w3.org/1999/xlink" xmlns="http://www.w3.org/2000/svg"><clipPath id="g333c88cd370_0_0.0"><path d="m0 0l1152.0 0l0 192.0l-1152.0 0l0 -192.0z" clip-rule="nonzero"/></clipPath><g clip-path="url(#g333c88cd370_0_0.0)"><path fill="#edf2fa" d="m0 0l1152.0 0l0 192.0l-1152.0 0z" fill-rule="evenodd"/><path fill="#ffffff" d="m-0.010516273 -5.015748l1165.5748 0c0.0025634766 0 0.005004883 0.0010232925 0.0068359375 0.0028448105c0.0018310547 0.001821518 0.0028076172 0.0042920113 0.0028076172 0.0068683624l-0.009643555 196.99817c0 0.0053710938 -0.0043945312 0.009719849 -0.009765625 0.009719849l-1165.5651 -0.009719849l0 0c-0.0053644106 0 -0.009713123 -0.004348755 -0.009713123 -0.009719849l0.009713123 -196.99815l0 0c0 -0.005364418 0.0043487134 -0.009713173 0.009713124 -0.009713173z" fill-rule="evenodd"/><path fill="#000000" fill-opacity="0.0" d="m17.695538 23.36483l580.8819 0l0 143.71652l-580.8819 0z" fill-rule="evenodd"/><path fill="#073763" d="m52.664288 155.2817q-8.28125 0 -13.5 -4.3906097q-5.203125 -4.375 -5.203125 -11.5625q0 -4.453125 2.109375 -8.1875q2.109375 -3.75 5.75 -5.921875q3.65625 -2.171875 8.0 -2.171875q4.578125 0 7.578125 2.4375q3.015625 2.421875 3.015625 6.46875q0 3.09375 -2.828125 6.6875q-1.984375 -2.625 -3.265625 -3.203125q-1.28125 -0.578125 -2.703125 -0.578125q-2.453125 0 -4.0 1.609375q-1.53125 1.609375 -1.53125 4.328125q0 2.734375 1.484375 4.328125q1.5 1.609375 3.734375 1.609375q2.890625 0 5.15625 -2.8125q2.265625 -2.796875 3.546875 -8.84375l6.453129 -22.59375l0.421875 0.46875q-2.15625 4.46875 -6.562504 6.765625q-4.40625 2.28125 -9.65625 2.28125q-6.625 0 -11.671875 -3.546875q-5.046875 -3.5625 -7.671875 -9.984375q-2.625 -6.421875 -2.625 -14.75q0 -12.0 5.25 -21.90625q5.265625 -9.90625 14.5 -15.625q9.234375 -5.71875 20.343754 -5.71875q9.5 0 15.25 4.3125q5.765625 4.296875 5.765625 11.859375q0 5.109375 -2.640625 8.390625q-2.640625 3.265625 -7.0 3.265625q-2.390625 0 -4.484375 -1.015625q-2.078125 -1.015625 -4.484375 -4.296875q2.921875 -1.96875 4.0625 -4.390625q1.15625 -2.421875 1.15625 -4.890625q0 -2.46875 -1.359375 -3.734375q-1.34375 -1.265625 -4.0625 -1.265625q-5.453125 0 -10.781254 5.078125q-5.3125 5.0625 -8.671875 13.5q-3.34375 8.421875 -3.34375 17.703125q0 7.4375 2.171875 11.015625q2.171875 3.5625 5.984375 3.5625q4.859375 0 8.875004 -5.53125q4.03125 -5.53125 6.875 -17.96875l15.78125 0.125l-8.125 37.359375q-3.453125 16.09375 -10.0 23.90625q-6.531254 7.8281097 -17.093754 7.8281097zm55.207767 -21.374985q-8.421875 0 -13.453125 -4.453125q-5.03125 -4.453125 -5.03125 -13.828125q0 -7.53125 2.9375 -16.53125q2.953125 -9.015625 9.75 -15.75q6.8125 -6.75 17.484375 -6.75q13.96875 0 14.90625 13.828125q-0.09375 0.015625 1.46875 -1.78125q1.578125 -1.796875 3.5625 -5.09375l6.953125 0q-4.078125 8.171875 -6.4375 11.59375q-2.34375 3.40625 -5.484375 5.15625q-0.59375 9.3125 -4.171875 17.125q-3.578125 7.796875 -9.4375 12.140625q-5.859375 4.34375 -13.046875 4.34375zm4.21875 -12.765625q2.90625 0 5.984375 -5.75q3.078125 -5.765625 4.125 -13.4375q-2.375 -0.890625 -2.375 -5.8125q0 -5.15625 2.890625 -6.5q-0.125 -1.796875 -0.65625 -2.5625q-0.53125 -0.78125 -1.65625 -0.78125q-2.5625 0 -5.421875 4.515625q-2.859375 4.515625 -4.75 11.40625q-1.875 6.875 -1.875 12.03125q0 4.5625 0.765625 5.734375q0.78125 1.15625 2.96875 1.15625zm93.85727 38.67186q-5.171875 0 -10.0 -2.828125q-4.828125 -2.828125 -11.96875 -8.48436q-5.234375 -4.171875 -8.875 -6.6875q-3.640625 -2.515625 -7.78125 -4.21875q-4.140625 -1.6875 -8.34375 -1.6875q-1.46875 0 -4.515625 0.390625l15.53125 -72.25q-3.71875 1.5 -7.296875 6.9375q-3.5625 5.421875 -3.5625 13.359375q0 3.515625 0.734375 5.046875q0.75 1.53125 0.75 3.75q-7.921875 0 -11.25 -2.796875q-3.3125 -2.8125 -3.3125 -9.0625q0 -7.34375 5.84375 -14.078125q5.859375 -6.75 14.8125 -10.84375q8.96875 -4.09375 17.96875 -4.09375q1.53125 0 6.203125 0.34375l-16.28125 75.921875q1.5625 0.375 4.765625 1.84375q3.203125 1.46875 7.671875 3.921875q6.765625 3.640625 11.40625 5.515625q4.65625 1.875 9.609375 1.875q4.40625 0 10.78125 -2.609375q-1.1875 10.8125 -4.4375 15.76561q-3.234375 4.96875 -8.453125 4.96875zm-0.61190796 -25.70311q-8.453125 0 -13.265625 -4.515625q-4.8125 -4.53125 -4.8125 -13.859375q0 -7.546875 2.9375 -16.59375q2.953125 -9.0625 9.765625 -15.796875q6.8125 -6.75 17.375 -6.75q13.234375 0 13.234375 11.75q0 6.390625 -3.625 11.71875q-3.625 5.328125 -9.546875 8.515625q-5.90625 3.171875 -11.15625 3.53125q-0.109375 1.6875 -0.109375 2.671875q0 4.484375 1.3125 5.84375q1.3125 1.359375 4.625 1.359375q5.203125 0 8.953125 -2.4375q3.765625 -2.453125 8.96875 -8.203125l7.21875 0q-13.6875 22.765625 -31.875 22.765625zm2.203125 -30.34375q1.34375 -0.078125 4.53125 -2.359375q3.1875 -2.28125 5.140625 -5.828125q1.96875 -3.546875 1.96875 -7.453125q0 -2.671875 -1.0 -2.671875q-2.8125 0 -6.15625 6.09375q-3.328125 6.09375 -4.484375 12.21875zm45.102234 56.04686q-5.609375 0 -9.53125 -3.0625q-3.90625 -3.046875 -3.90625 -8.79686q0 -6.828125 5.28125 -10.796875q5.28125 -3.953125 12.14061 -6.171875l-0.109375 0.9375q-1.8906097 2.1875 -9.874985 2.1875q-6.6875 0 -11.171875 -4.578125q-4.484375 -4.59375 -4.484375 -14.015625q0 -8.078125 3.21875 -16.96875q3.234375 -8.90625 9.765625 -15.21875q6.546875 -6.3125 15.73436 -6.3125q4.828125 0 7.5 1.875q2.671875 1.859375 2.671875 5.140625l-1.640625 0.625l-0.171875 -7.109375l18.53125 0l-10.265625 48.03125q1.9375 -0.640625 4.71875 -3.71875q2.796875 -3.078125 5.15625 -10.515625l7.84375 0q-3.625 11.921875 -8.796875 16.59375q-5.15625 4.65625 -10.671875 6.078125l-1.359375 6.578125q-2.234375 10.82811 -7.875 15.01561q-5.625 4.203125 -12.70311 4.203125zm0.84375 -39.187485q1.796875 0 3.9062347 -1.84375q2.109375 -1.84375 2.921875 -5.109375l5.328125 -24.765625q0 -0.515625 -0.625 -1.296875q-0.625 -0.78125 -2.046875 -0.78125q-3.359375 0 -6.40625 4.4375q-3.0312347 4.421875 -4.8749847 11.078125q-1.828125 6.65625 -1.828125 11.703125q0 4.5625 1.03125 5.578125q1.046875 1.0 2.59375 1.0zm-3.265625 27.6875q0.9375 0 2.28125 -1.9375q1.34375 -1.921875 2.21875 -6.125l0.03125 -0.15625q-6.46875 2.375 -6.46875 6.390625q0 0.75 0.484375 1.28125q0.5 0.546875 1.453125 0.546875zm53.104446 -14.203125q-6.6875 0 -11.171875 -4.578125q-4.484375 -4.59375 -4.484375 -14.015625q0 -8.078125 3.21875 -16.96875q3.234375 -8.90625 9.765625 -15.21875q6.546875 -6.3125 15.734375 -6.3125q4.828125 0 7.5 1.875q2.671875 1.859375 2.671875 5.140625l-1.640625 0.734375l-0.171875 -7.21875l18.53125 0l-8.03125 37.8125q-0.375 1.4375 -0.375 3.0q0 2.890625 2.6875 2.890625q2.140625 0 3.953125 -2.296875q1.828125 -2.3125 3.34375 -7.609375l7.953125 0q-4.828125 14.046875 -11.0 18.40625q-6.15625 4.359375 -12.46875 4.359375q-5.0625 0 -8.21875 -2.890625q-3.140625 -2.890625 -3.265625 -3.953125q-0.703125 1.015625 -4.78125 3.9375q-4.0625 2.90625 -9.75 2.90625zm6.84375 -13.484375q1.984375 0 4.140625 -2.078125q2.15625 -2.078125 3.0 -5.90625l5.015625 -23.625q0 -0.625 -0.625 -1.40625q-0.625 -0.78125 -2.046875 -0.78125q-3.359375 0 -6.40625 4.4375q-3.03125 4.421875 -4.875 11.078125q-1.828125 6.65625 -1.828125 11.703125q0 4.5625 1.03125 5.578125q1.046875 1.0 2.59375 1.0zm49.418182 13.484375q-5.765625 0 -9.34375 -3.703125q-3.5625 -3.703125 -3.5625 -10.78125q0 -2.78125 0.875 -7.171875l11.515625 -53.90625l19.03125 -2.578125l-12.609375 59.203125q-0.375 1.40625 -0.375 2.65625q0 2.578125 2.6875 2.578125q1.5625 0 5.21875 -1.5625q-0.703125 8.640625 -4.5 11.953125q-3.796875 3.3125 -8.9375 3.3125z" fill-rule="nonzero"/><path fill="#000000" fill-opacity="0.0" d="m401.75067 103.73753l702.9921 0l0 63.338577l-702.9921 0z" fill-rule="evenodd"/><path fill="#073763" d="m419.04755 120.23066l-5.640625 15.546867l-2.3125 0l6.5 -17.062492l1.484375 0l-0.03125 1.515625zm4.734375 15.546867l-5.65625 -15.546867l-0.03125 -1.515625l1.484375 0l6.53125 17.062492l-2.328125 0zm-0.296875 -6.3125l0 1.84375l-9.578125 0l0 -1.84375l9.578125 0zm15.074219 0.890625l2.25 0q-0.171875 1.609375 -0.921875 2.890625q-0.75 1.28125 -2.125 2.03125q-1.375 0.734375 -3.421875 0.734375q-1.5 0 -2.734375 -0.5625q-1.21875 -0.5625 -2.09375 -1.59375q-0.875 -1.046875 -1.359375 -2.5q-0.46875 -1.46875 -0.46875 -3.25l0 -1.7031174q0 -1.796875 0.46875 -3.25q0.484375 -1.46875 1.375 -2.5q0.90625 -1.046875 2.171875 -1.609375q1.265625 -0.5625 2.84375 -0.5625q1.9375 0 3.265625 0.734375q1.34375 0.71875 2.078125 2.0q0.75 1.28125 0.921875 2.96875l-2.25 0q-0.15625 -1.1875 -0.609375 -2.046875q-0.4375 -0.875 -1.265625 -1.34375q-0.8125 -0.46875 -2.140625 -0.46875q-1.140625 0 -2.0 0.4375q-0.859375 0.4375 -1.4375 1.234375q-0.578125 0.796875 -0.875 1.90625q-0.296875 1.109375 -0.296875 2.46875l0 1.7343674q0 1.25 0.265625 2.359375q0.265625 1.09375 0.796875 1.921875q0.546875 0.828125 1.375 1.3125q0.828125 0.46875 1.96875 0.46875q1.4375 0 2.296875 -0.453125q0.859375 -0.453125 1.296875 -1.3125q0.4375 -0.859375 0.625 -2.046875zm15.621094 0l2.25 0q-0.171875 1.609375 -0.921875 2.890625q-0.75 1.28125 -2.125 2.03125q-1.375 0.734375 -3.421875 0.734375q-1.5 0 -2.734375 -0.5625q-1.21875 -0.5625 -2.09375 -1.59375q-0.875 -1.046875 -1.359375 -2.5q-0.46875 -1.46875 -0.46875 -3.25l0 -1.7031174q0 -1.796875 0.46875 -3.25q0.484375 -1.46875 1.375 -2.5q0.90625 -1.046875 2.171875 -1.609375q1.265625 -0.5625 2.84375 -0.5625q1.9375 0 3.265625 0.734375q1.34375 0.71875 2.078125 2.0q0.75 1.28125 0.921875 2.96875l-2.25 0q-0.15625 -1.1875 -0.609375 -2.046875q-0.4375 -0.875 -1.265625 -1.34375q-0.8125 -0.46875 -2.140625 -0.46875q-1.140625 0 -2.0 0.4375q-0.859375 0.4375 -1.4375 1.234375q-0.578125 0.796875 -0.875 1.90625q-0.296875 1.109375 -0.296875 2.46875l0 1.7343674q0 1.25 0.265625 2.359375q0.265625 1.09375 0.796875 1.921875q0.546875 0.828125 1.375 1.3125q0.828125 0.46875 1.96875 0.46875q1.4375 0 2.296875 -0.453125q0.859375 -0.453125 1.296875 -1.3125q0.4375 -0.859375 0.625 -2.046875zm16.167969 3.578125l0 1.84375l-9.046875 0l0 -1.84375l9.046875 0zm-8.578125 -15.218742l0 17.062492l-2.265625 0l0 -17.062492l2.265625 0zm7.375 7.328125l0 1.84375l-7.84375 0l0 -1.84375l7.84375 0zm1.078125 -7.328125l0 1.84375l-8.921875 0l0 -1.84375l8.921875 0zm12.015625 12.749992q0 -0.59375 -0.1875 -1.0625q-0.171875 -0.46875 -0.625 -0.84375q-0.453125 -0.375 -1.25 -0.703125q-0.78125 -0.34375 -2.0 -0.703125q-1.265625 -0.37499237 -2.28125 -0.8281174q-1.015625 -0.46875 -1.75 -1.0625q-0.71875 -0.59375 -1.109375 -1.359375q-0.390625 -0.78125 -0.390625 -1.78125q0 -1.0 0.40625 -1.84375q0.421875 -0.84375 1.1875 -1.46875q0.765625 -0.625 1.828125 -0.96875q1.078125 -0.359375 2.390625 -0.359375q1.921875 0 3.25 0.734375q1.34375 0.734375 2.046875 1.90625q0.703125 1.171875 0.703125 2.515625l-2.25 0q0 -0.96875 -0.40625 -1.703125q-0.40625 -0.75 -1.25 -1.171875q-0.828125 -0.4375 -2.09375 -0.4375q-1.21875 0 -2.0 0.375q-0.78125 0.359375 -1.171875 0.984375q-0.375 0.609375 -0.375 1.40625q0 0.546875 0.21875 0.984375q0.234375 0.4375 0.71875 0.8125q0.5 0.375 1.25 0.703125q0.75 0.3125 1.8125 0.59375q1.453125 0.421875 2.5 0.921875q1.0625 0.5 1.75 1.1249924q0.6875 0.625 1.015625 1.421875q0.328125 0.796875 0.328125 1.78125q0 1.046875 -0.421875 1.890625q-0.421875 0.84375 -1.203125 1.453125q-0.78125 0.59375 -1.875 0.921875q-1.09375 0.3125 -2.453125 0.3125q-1.171875 0 -2.328125 -0.328125q-1.140625 -0.328125 -2.078125 -0.984375q-0.921875 -0.65625 -1.484375 -1.625q-0.546875 -0.96875 -0.546875 -2.25l2.25 0q0 0.890625 0.328125 1.515625q0.34375 0.625 0.9375 1.03125q0.59375 0.40625 1.34375 0.609375q0.765625 0.1875 1.578125 0.1875q1.1875 0 2.0 -0.328125q0.828125 -0.328125 1.25 -0.9375q0.4375 -0.609375 0.4375 -1.4375zm14.25 0q0 -0.59375 -0.1875 -1.0625q-0.171875 -0.46875 -0.625 -0.84375q-0.453125 -0.375 -1.25 -0.703125q-0.78125 -0.34375 -2.0 -0.703125q-1.265625 -0.37499237 -2.28125 -0.8281174q-1.015625 -0.46875 -1.75 -1.0625q-0.71875 -0.59375 -1.109375 -1.359375q-0.390625 -0.78125 -0.390625 -1.78125q0 -1.0 0.40625 -1.84375q0.421875 -0.84375 1.1875 -1.46875q0.765625 -0.625 1.828125 -0.96875q1.078125 -0.359375 2.390625 -0.359375q1.921875 0 3.25 0.734375q1.34375 0.734375 2.046875 1.90625q0.703125 1.171875 0.703125 2.515625l-2.25 0q0 -0.96875 -0.40625 -1.703125q-0.40625 -0.75 -1.25 -1.171875q-0.828125 -0.4375 -2.09375 -0.4375q-1.21875 0 -2.0 0.375q-0.78125 0.359375 -1.171875 0.984375q-0.375 0.609375 -0.375 1.40625q0 0.546875 0.21875 0.984375q0.234375 0.4375 0.71875 0.8125q0.5 0.375 1.25 0.703125q0.75 0.3125 1.8125 0.59375q1.453125 0.421875 2.5 0.921875q1.0625 0.5 1.75 1.1249924q0.6875 0.625 1.015625 1.421875q0.328125 0.796875 0.328125 1.78125q0 1.046875 -0.421875 1.890625q-0.421875 0.84375 -1.203125 1.453125q-0.78125 0.59375 -1.875 0.921875q-1.09375 0.3125 -2.453125 0.3125q-1.171875 0 -2.328125 -0.328125q-1.140625 -0.328125 -2.078125 -0.984375q-0.921875 -0.65625 -1.484375 -1.625q-0.546875 -0.96875 -0.546875 -2.25l2.25 0q0 0.890625 0.328125 1.515625q0.34375 0.625 0.9375 1.03125q0.59375 0.40625 1.34375 0.609375q0.765625 0.1875 1.578125 0.1875q1.1875 0 2.0 -0.328125q0.828125 -0.328125 1.25 -0.9375q0.4375 -0.609375 0.4375 -1.4375zm21.953125 2.46875l0 1.84375l-9.046875 0l0 -1.84375l9.046875 0zm-8.578125 -15.218742l0 17.062492l-2.265625 0l0 -17.062492l2.265625 0zm7.375 7.328125l0 1.84375l-7.84375 0l0 -1.84375l7.84375 0zm1.078125 -7.328125l0 1.84375l-8.921875 0l0 -1.84375l8.921875 0zm9.453125 0l0 17.062492l-2.21875 0l0 -17.062492l2.21875 0zm5.484375 0l0 1.84375l-13.171875 0l0 -1.84375l13.171875 0zm13.6796875 7.328125l0 1.84375l-9.234375 0l0 -1.84375l9.234375 0zm-8.875 -7.328125l0 17.062492l-2.265625 0l0 -17.062492l2.265625 0zm10.84375 0l0 17.062492l-2.25 0l0 -17.062492l2.25 0zm6.4335938 0l0 17.062492l-2.265625 0l0 -17.062492l2.265625 0zm17.246094 7.984375l0 1.078125q0 1.9218674 -0.484375 3.4531174q-0.484375 1.515625 -1.390625 2.59375q-0.890625 1.0625 -2.15625 1.625q-1.265625 0.5625 -2.8125 0.5625q-1.515625 0 -2.78125 -0.5625q-1.25 -0.5625 -2.171875 -1.625q-0.921875 -1.078125 -1.4375 -2.59375q-0.5 -1.53125 -0.5 -3.4531174l0 -1.078125q0 -1.921875 0.5 -3.4375q0.5 -1.515625 1.40625 -2.578125q0.921875 -1.078125 2.171875 -1.640625q1.265625 -0.5625 2.78125 -0.5625q1.5625 0 2.8125 0.5625q1.265625 0.5625 2.171875 1.640625q0.90625 1.0625 1.390625 2.578125q0.5 1.515625 0.5 3.4375zm-2.25 1.078125l0 -1.09375q0 -1.53125 -0.3125 -2.703125q-0.296875 -1.171875 -0.90625 -1.96875q-0.59375 -0.796875 -1.453125 -1.203125q-0.859375 -0.40625 -1.953125 -0.40625q-1.046875 0 -1.90625 0.40625q-0.84375 0.40625 -1.453125 1.203125q-0.59375 0.796875 -0.921875 1.96875q-0.328125 1.171875 -0.328125 2.703125l0 1.09375q0 1.5468674 0.328125 2.7187424q0.328125 1.171875 0.9375 1.984375q0.609375 0.796875 1.453125 1.21875q0.859375 0.40625 1.921875 0.40625q1.09375 0 1.953125 -0.40625q0.859375 -0.421875 1.4375 -1.21875q0.59375 -0.8125 0.890625 -1.984375q0.3125 -1.171875 0.3125 -2.7187424zm11.917969 1.3124924l-4.5625 0l0 -1.8437424l4.5625 0q1.3125 0 2.125 -0.421875q0.828125 -0.421875 1.203125 -1.171875q0.390625 -0.75 0.390625 -1.71875q0 -0.875 -0.390625 -1.640625q-0.375 -0.78125 -1.203125 -1.25q-0.8125 -0.484375 -2.125 -0.484375l-4.03125 0l0 15.218742l-2.265625 0l0 -17.062492l6.296875 0q1.921875 0 3.25 0.671875q1.34375 0.65625 2.03125 1.84375q0.703125 1.171875 0.703125 2.6875q0 1.640625 -0.703125 2.796875q-0.6875 1.15625 -2.03125 1.7656174q-1.328125 0.609375 -3.25 0.609375zm11.265625 -10.374992l0 17.062492l-2.265625 0l0 -17.062492l2.265625 0zm10.628906 1.515625l-5.640625 15.546867l-2.3125 0l6.5 -17.062492l1.484375 0l-0.03125 1.515625zm4.734375 15.546867l-5.65625 -15.546867l-0.03125 -1.515625l1.484375 0l6.53125 17.062492l-2.328125 0zm-0.296875 -6.3125l0 1.84375l-9.578125 0l0 -1.84375l9.578125 0zm18.03125 -10.749992l0 17.062492l-2.28125 0l-8.578125 -13.156242l0 13.156242l-2.265625 0l0 -17.062492l2.265625 0l8.625 13.187492l0 -13.187492l2.234375 0zm20.292969 15.218742l0 1.84375l-8.53125 0l0 -1.84375l8.53125 0zm-8.078125 -15.218742l0 17.062492l-2.265625 0l0 -17.062492l2.265625 0zm17.195312 1.515625l-5.640625 15.546867l-2.3125 0l6.5 -17.062492l1.484375 0l-0.03125 1.515625zm4.734375 15.546867l-5.65625 -15.546867l-0.03125 -1.515625l1.484375 0l6.53125 17.062492l-2.328125 0zm-0.296875 -6.3125l0 1.84375l-9.578125 0l0 -1.84375l9.578125 0zm8.582031 1.15625l3.390625 -11.906242l1.640625 0l-0.953125 4.625l-3.640625 12.437492l-1.625 0l1.1875 -5.15625zm-3.5 -11.906242l2.6875 11.671867l0.8125 5.390625l-1.609375 0l-4.140625 -17.062492l2.25 0zm12.90625 11.656242l2.640625 -11.656242l2.265625 0l-4.125 17.062492l-1.625 0l0.84375 -5.40625zm-4.125 -11.656242l3.28125 11.906242l1.203125 5.15625l-1.625 0l-3.515625 -12.437492l-0.96875 -4.625l1.625 0z" fill-rule="nonzero"/><path fill="#073763" d="m419.37567 158.5944l0 -11.40625l2.125 0l0 11.40625q0 1.59375 -0.65625 2.6875q-0.640625 1.09375 -1.796875 1.671875q-1.140625 0.5625 -2.625 0.5625q-1.484375 0 -2.640625 -0.5q-1.140625 -0.515625 -1.796875 -1.546875q-0.640625 -1.046875 -0.640625 -2.625l2.125 0q0 1.015625 0.375 1.671875q0.375 0.640625 1.046875 0.953125q0.671875 0.3125 1.53125 0.3125q0.84375 0 1.515625 -0.359375q0.671875 -0.359375 1.046875 -1.0625q0.390625 -0.71875 0.390625 -1.765625zm14.953888 -11.40625l2.125 0l0 10.90625q0 1.8125 -0.8125 3.015625q-0.796875 1.203125 -2.140625 1.8125q-1.328125 0.59375 -2.875 0.59375q-1.640625 0 -2.96875 -0.59375q-1.3125 -0.609375 -2.09375 -1.8125q-0.765625 -1.203125 -0.765625 -3.015625l0 -10.90625l2.109375 0l0 10.90625q0 1.25 0.46875 2.078125q0.46875 0.8125 1.296875 1.21875q0.84375 0.390625 1.953125 0.390625q1.109375 0 1.9375 -0.390625q0.84375 -0.40625 1.296875 -1.21875q0.46875 -0.828125 0.46875 -2.078125l0 -10.90625zm14.066162 12.03125q0 -0.5625 -0.171875 -1.0q-0.171875 -0.4375 -0.59375 -0.78125q-0.421875 -0.359375 -1.171875 -0.671875q-0.75 -0.328125 -1.890625 -0.65625q-1.1875 -0.359375 -2.15625 -0.796875q-0.96875 -0.4375 -1.65625 -1.0q-0.671875 -0.5625 -1.046875 -1.28125q-0.359375 -0.734375 -0.359375 -1.6875q0 -0.9375 0.375 -1.734375q0.390625 -0.796875 1.109375 -1.390625q0.734375 -0.59375 1.734375 -0.921875q1.015625 -0.328125 2.25 -0.328125q1.8125 0 3.078125 0.6875q1.28125 0.6875 1.9375 1.8125q0.671875 1.109375 0.671875 2.375l-2.125 0q0 -0.921875 -0.390625 -1.609375q-0.390625 -0.703125 -1.171875 -1.109375q-0.78125 -0.40625 -2.0 -0.40625q-1.140625 0 -1.875 0.34375q-0.734375 0.34375 -1.09375 0.9375q-0.359375 0.578125 -0.359375 1.328125q0 0.515625 0.203125 0.9375q0.21875 0.40625 0.671875 0.765625q0.46875 0.34375 1.171875 0.640625q0.71875 0.296875 1.71875 0.578125q1.375 0.390625 2.359375 0.875q1.0 0.46875 1.640625 1.0625q0.65625 0.578125 0.96875 1.328125q0.3125 0.75 0.3125 1.6875q0 0.984375 -0.40625 1.78125q-0.390625 0.796875 -1.125 1.359375q-0.734375 0.5625 -1.78125 0.875q-1.03125 0.296875 -2.296875 0.296875q-1.125 0 -2.203125 -0.296875q-1.078125 -0.3125 -1.953125 -0.9375q-0.875 -0.625 -1.40625 -1.53125q-0.53125 -0.921875 -0.53125 -2.125l2.125 0q0 0.828125 0.3125 1.421875q0.328125 0.59375 0.890625 0.984375q0.5625 0.390625 1.265625 0.578125q0.71875 0.171875 1.5 0.171875q1.109375 0 1.875 -0.3125q0.78125 -0.3125 1.1875 -0.875q0.40625 -0.578125 0.40625 -1.375zm10.827148 -12.03125l0 16.109375l-2.109375 0l0 -16.109375l2.109375 0zm5.171875 0l0 1.75l-12.453125 0l0 -1.75l12.453125 0zm9.695618 0l0 16.109375l-2.125 0l0 -16.109375l2.125 0zm6.75 7.25l0 1.75l-7.203125 0l0 -1.75l7.203125 0zm1.09375 -7.25l0 1.75l-8.296875 0l0 -1.75l8.296875 0zm2.5541382 0l5.328125 0q1.8125 0 3.0625 0.5625q1.265625 0.546875 1.921875 1.625q0.65625 1.078125 0.65625 2.65625q0 1.09375 -0.453125 2.015625q-0.4375 0.90625 -1.28125 1.546875q-0.828125 0.640625 -2.0 0.9375l-0.59375 0.234375l-5.015625 0l-0.015625 -1.734375l3.78125 0q1.15625 0 1.90625 -0.40625q0.765625 -0.40625 1.15625 -1.078125q0.390625 -0.6875 0.390625 -1.515625q0 -0.9375 -0.375 -1.625q-0.359375 -0.703125 -1.140625 -1.078125q-0.765625 -0.390625 -2.0 -0.390625l-3.203125 0l0 14.359375l-2.125 0l0 -16.109375zm9.40625 16.109375l-3.90625 -7.296875l2.21875 -0.015625l3.96875 7.1875l0 0.125l-2.28125 0zm16.945404 -8.5625l0 1.015625q0 1.8125 -0.453125 3.25q-0.453125 1.4375 -1.3125 2.453125q-0.84375 1.0 -2.03125 1.53125q-1.1875 0.53125 -2.65625 0.53125q-1.421875 0 -2.625 -0.53125q-1.1875 -0.53125 -2.0625 -1.53125q-0.859375 -1.015625 -1.34375 -2.453125q-0.46875 -1.4375 -0.46875 -3.25l0 -1.015625q0 -1.8125 0.46875 -3.234375q0.46875 -1.4375 1.328125 -2.453125q0.875 -1.015625 2.0625 -1.546875q1.1875 -0.53125 2.609375 -0.53125q1.484375 0 2.671875 0.53125q1.1875 0.53125 2.046875 1.546875q0.859375 1.015625 1.3125 2.453125q0.453125 1.421875 0.453125 3.234375zm-2.109375 1.015625l0 -1.03125q0 -1.4375 -0.296875 -2.546875q-0.28125 -1.109375 -0.859375 -1.859375q-0.5625 -0.75 -1.375 -1.140625q-0.8125 -0.390625 -1.84375 -0.390625q-0.984375 0 -1.796875 0.390625q-0.796875 0.390625 -1.375 1.140625q-0.5625 0.75 -0.875 1.859375q-0.3125 1.109375 -0.3125 2.546875l0 1.03125q0 1.453125 0.3125 2.5625q0.3125 1.109375 0.890625 1.875q0.578125 0.75 1.375 1.140625q0.8125 0.390625 1.8125 0.390625q1.03125 0 1.84375 -0.390625q0.8125 -0.390625 1.359375 -1.140625q0.5625 -0.765625 0.84375 -1.875q0.296875 -1.109375 0.296875 -2.5625zm5.977844 -8.5625l2.0625 0l5.28125 13.140625l5.265625 -13.140625l2.078125 0l-6.546875 16.109375l-1.609375 0l-6.53125 -16.109375zm-0.671875 0l1.8125 0l0.3125 9.828125l0 6.28125l-2.125 0l0 -16.109375zm14.203125 0l1.828125 0l0 16.109375l-2.125 0l0 -6.28125l0.296875 -9.828125zm11.93103 0l4.1875 8.09375l4.1875 -8.09375l2.421875 0l-5.546875 10.09375l0 6.015625l-2.140625 0l0 -6.015625l-5.546875 -10.09375l2.4375 0zm24.942322 7.546875l0 1.015625q0 1.8125 -0.453125 3.25q-0.453125 1.4375 -1.3125 2.453125q-0.84375 1.0 -2.03125 1.53125q-1.1875 0.53125 -2.65625 0.53125q-1.421875 0 -2.625 -0.53125q-1.1875 -0.53125 -2.0625 -1.53125q-0.859375 -1.015625 -1.34375 -2.453125q-0.46875 -1.4375 -0.46875 -3.25l0 -1.015625q0 -1.8125 0.46875 -3.234375q0.46875 -1.4375 1.328125 -2.453125q0.875 -1.015625 2.0625 -1.546875q1.1875 -0.53125 2.609375 -0.53125q1.484375 0 2.671875 0.53125q1.1875 0.53125 2.046875 1.546875q0.859375 1.015625 1.3125 2.453125q0.453125 1.421875 0.453125 3.234375zm-2.109375 1.015625l0 -1.03125q0 -1.4375 -0.296875 -2.546875q-0.28125 -1.109375 -0.859375 -1.859375q-0.5625 -0.75 -1.375 -1.140625q-0.8125 -0.390625 -1.84375 -0.390625q-0.984375 0 -1.796875 0.390625q-0.796875 0.390625 -1.375 1.140625q-0.5625 0.75 -0.875 1.859375q-0.3125 1.109375 -0.3125 2.546875l0 1.03125q0 1.453125 0.3125 2.5625q0.3125 1.109375 0.890625 1.875q0.578125 0.75 1.375 1.140625q0.8125 0.390625 1.8125 0.390625q1.03125 0 1.84375 -0.390625q0.8125 -0.390625 1.359375 -1.140625q0.5625 -0.765625 0.84375 -1.875q0.296875 -1.109375 0.296875 -2.5625zm14.509094 -8.5625l2.125 0l0 10.90625q0 1.8125 -0.8125 3.015625q-0.796875 1.203125 -2.140625 1.8125q-1.328125 0.59375 -2.875 0.59375q-1.640625 0 -2.96875 -0.59375q-1.3125 -0.609375 -2.09375 -1.8125q-0.765625 -1.203125 -0.765625 -3.015625l0 -10.90625l2.109375 0l0 10.90625q0 1.25 0.46875 2.078125q0.46875 0.8125 1.296875 1.21875q0.84375 0.390625 1.953125 0.390625q1.109375 0 1.9375 -0.390625q0.84375 -0.40625 1.296875 -1.21875q0.46875 -0.828125 0.46875 -2.078125l0 -10.90625zm5.488037 0l5.328125 0q1.8125 0 3.0625 0.5625q1.265625 0.546875 1.921875 1.625q0.65625 1.078125 0.65625 2.65625q0 1.09375 -0.453125 2.015625q-0.4375 0.90625 -1.28125 1.546875q-0.828125 0.640625 -2.0 0.9375l-0.59375 0.234375l-5.015625 0l-0.015625 -1.734375l3.78125 0q1.15625 0 1.90625 -0.40625q0.765625 -0.40625 1.15625 -1.078125q0.390625 -0.6875 0.390625 -1.515625q0 -0.9375 -0.375 -1.625q-0.359375 -0.703125 -1.140625 -1.078125q-0.765625 -0.390625 -2.0 -0.390625l-3.203125 0l0 14.359375l-2.125 0l0 -16.109375zm9.40625 16.109375l-3.90625 -7.296875l2.21875 -0.015625l3.96875 7.1875l0 0.125l-2.28125 0zm12.299622 -16.109375l0 16.109375l-2.125 0l0 -16.109375l2.125 0zm6.75 7.25l0 1.75l-7.203125 0l0 -1.75l7.203125 0zm1.09375 -7.25l0 1.75l-8.296875 0l0 -1.75l8.296875 0zm4.835388 0l0 16.109375l-2.125 0l0 -16.109375l2.125 0zm16.27124 0l0 16.109375l-2.15625 0l-8.109375 -12.421875l0 12.421875l-2.125 0l0 -16.109375l2.125 0l8.140625 12.453125l0 -12.453125l2.125 0zm15.662476 8.09375l0 5.890625q-0.296875 0.4375 -0.953125 0.984375q-0.640625 0.546875 -1.796875 0.953125q-1.140625 0.40625 -2.9375 0.40625q-1.46875 0 -2.703125 -0.515625q-1.234375 -0.515625 -2.140625 -1.5q-0.90625 -0.984375 -1.40625 -2.40625q-0.484375 -1.421875 -0.484375 -3.234375l0 -1.25q0 -1.796875 0.421875 -3.203125q0.4375 -1.421875 1.265625 -2.40625q0.828125 -1.0 2.03125 -1.515625q1.203125 -0.515625 2.765625 -0.515625q1.859375 0 3.09375 0.640625q1.25 0.625 1.953125 1.75q0.703125 1.109375 0.890625 2.546875l-2.125 0q-0.140625 -0.875 -0.578125 -1.59375q-0.421875 -0.71875 -1.203125 -1.15625q-0.78125 -0.4375 -2.03125 -0.4375q-1.109375 0 -1.9375 0.40625q-0.8125 0.40625 -1.34375 1.171875q-0.53125 0.765625 -0.796875 1.859375q-0.25 1.078125 -0.25 2.4375l0 1.265625q0 1.390625 0.328125 2.5q0.328125 1.09375 0.921875 1.859375q0.609375 0.765625 1.453125 1.171875q0.859375 0.390625 1.890625 0.390625q1.125 0 1.828125 -0.1875q0.71875 -0.203125 1.109375 -0.46875q0.40625 -0.265625 0.625 -0.515625l0 -3.609375l-3.734375 0l0 -1.71875l5.84375 0zm13.776123 6.28125l0 1.734375l-8.53125 0l0 -1.734375l8.53125 0zm-8.109375 -14.375l0 16.109375l-2.125 0l0 -16.109375l2.125 0zm6.96875 6.921875l0 1.75l-7.390625 0l0 -1.75l7.390625 0zm1.015625 -6.921875l0 1.75l-8.40625 0l0 -1.75l8.40625 0zm2.767517 0l5.328125 0q1.8125 0 3.0625 0.5625q1.265625 0.546875 1.921875 1.625q0.65625 1.078125 0.65625 2.65625q0 1.09375 -0.453125 2.015625q-0.4375 0.90625 -1.28125 1.546875q-0.828125 0.640625 -2.0 0.9375l-0.59375 0.234375l-5.015625 0l-0.015625 -1.734375l3.78125 0q1.15625 0 1.90625 -0.40625q0.765625 -0.40625 1.15625 -1.078125q0.390625 -0.6875 0.390625 -1.515625q0 -0.9375 -0.375 -1.625q-0.359375 -0.703125 -1.140625 -1.078125q-0.765625 -0.390625 -2.0 -0.390625l-3.203125 0l0 14.359375l-2.125 0l0 -16.109375zm9.40625 16.109375l-3.90625 -7.296875l2.21875 -0.015625l3.96875 7.1875l0 0.125l-2.28125 0zm9.622498 -16.109375l0 16.109375l-2.109375 0l0 -16.109375l2.109375 0zm5.171875 0l0 1.75l-12.453125 0l0 -1.75l12.453125 0zm4.6747437 0l0 16.109375l-2.125 0l0 -16.109375l2.125 0zm9.818176 9.796875l-4.3125 0l0 -1.734375l4.3125 0q1.25 0 2.015625 -0.390625q0.78125 -0.40625 1.140625 -1.109375q0.359375 -0.71875 0.359375 -1.625q0 -0.828125 -0.359375 -1.5625q-0.359375 -0.734375 -1.140625 -1.171875q-0.765625 -0.453125 -2.015625 -0.453125l-3.8125 0l0 14.359375l-2.125 0l0 -16.109375l5.9375 0q1.828125 0 3.078125 0.640625q1.265625 0.625 1.921875 1.734375q0.65625 1.109375 0.65625 2.53125q0 1.5625 -0.65625 2.65625q-0.65625 1.09375 -1.921875 1.671875q-1.25 0.5625 -3.078125 0.5625zm16.933533 2.234375q0 -0.5625 -0.171875 -1.0q-0.171875 -0.4375 -0.59375 -0.78125q-0.421875 -0.359375 -1.171875 -0.671875q-0.75 -0.328125 -1.890625 -0.65625q-1.1875 -0.359375 -2.15625 -0.796875q-0.96875 -0.4375 -1.65625 -1.0q-0.671875 -0.5625 -1.046875 -1.28125q-0.359375 -0.734375 -0.359375 -1.6875q0 -0.9375 0.375 -1.734375q0.390625 -0.796875 1.109375 -1.390625q0.734375 -0.59375 1.734375 -0.921875q1.015625 -0.328125 2.25 -0.328125q1.8125 0 3.078125 0.6875q1.28125 0.6875 1.9375 1.8125q0.671875 1.109375 0.671875 2.375l-2.125 0q0 -0.921875 -0.390625 -1.609375q-0.390625 -0.703125 -1.171875 -1.109375q-0.78125 -0.40625 -2.0 -0.40625q-1.140625 0 -1.875 0.34375q-0.734375 0.34375 -1.09375 0.9375q-0.359375 0.578125 -0.359375 1.328125q0 0.515625 0.203125 0.9375q0.21875 0.40625 0.671875 0.765625q0.46875 0.34375 1.171875 0.640625q0.71875 0.296875 1.71875 0.578125q1.375 0.390625 2.359375 0.875q1.0 0.46875 1.640625 1.0625q0.65625 0.578125 0.96875 1.328125q0.3125 0.75 0.3125 1.6875q0 0.984375 -0.40625 1.78125q-0.390625 0.796875 -1.125 1.359375q-0.734375 0.5625 -1.78125 0.875q-1.03125 0.296875 -2.296875 0.296875q-1.125 0 -2.203125 -0.296875q-1.078125 -0.3125 -1.953125 -0.9375q-0.875 -0.625 -1.40625 -1.53125q-0.53125 -0.921875 -0.53125 -2.125l2.125 0q0 0.828125 0.3125 1.421875q0.328125 0.59375 0.890625 0.984375q0.5625 0.390625 1.265625 0.578125q0.71875 0.171875 1.5 0.171875q1.109375 0 1.875 -0.3125q0.78125 -0.3125 1.1875 -0.875q0.40625 -0.578125 0.40625 -1.375z" fill-rule="nonzero"/><path fill="#000000" fill-opacity="0.0" d="m366.6488 139.2l823.3386 0.03149414" fill-rule="evenodd"/><path stroke="#073763" stroke-width="1.0" stroke-linejoin="round" stroke-linecap="butt" d="m366.6488 139.2l823.3386 0.03149414" fill-rule="evenodd"/><path fill="#000000" fill-opacity="0.0" d="m261.44 167.04l912.12604 1.7637787" fill-rule="evenodd"/><path stroke="#073763" stroke-width="1.0" stroke-linejoin="round" stroke-linecap="butt" d="m261.44 167.04l912.12604 1.7637787" fill-rule="evenodd"/></g></svg>